<mxfile host="app.diagrams.net" modified="2023-01-06T02:47:47.338Z" agent="5.0 (Windows NT 10.0; Win64; x64) AppleWebKit/537.36 (KHTML, like Gecko) Chrome/108.0.0.0 Safari/537.36" etag="a6UOkh7yV3dVtgMh0Dxv" version="20.8.0" type="github">
  <diagram id="C5RBs43oDa-KdzZeNtuy" name="Page-1">
    <mxGraphModel dx="1434" dy="795" grid="1" gridSize="10" guides="1" tooltips="1" connect="1" arrows="1" fold="1" page="1" pageScale="1" pageWidth="827" pageHeight="1169" math="0" shadow="0">
      <root>
        <mxCell id="WIyWlLk6GJQsqaUBKTNV-0" />
        <mxCell id="WIyWlLk6GJQsqaUBKTNV-1" parent="WIyWlLk6GJQsqaUBKTNV-0" />
        <mxCell id="Ai1VuBXjDjTH5sea_Xs4-11" style="edgeStyle=orthogonalEdgeStyle;rounded=0;orthogonalLoop=1;jettySize=auto;html=1;entryX=0;entryY=0.5;entryDx=0;entryDy=0;" edge="1" parent="WIyWlLk6GJQsqaUBKTNV-1" source="Ai1VuBXjDjTH5sea_Xs4-0" target="Ai1VuBXjDjTH5sea_Xs4-3">
          <mxGeometry relative="1" as="geometry" />
        </mxCell>
        <mxCell id="Ai1VuBXjDjTH5sea_Xs4-19" value="将产品发至海外仓" style="edgeLabel;html=1;align=center;verticalAlign=middle;resizable=0;points=[];" vertex="1" connectable="0" parent="Ai1VuBXjDjTH5sea_Xs4-11">
          <mxGeometry x="0.097" relative="1" as="geometry">
            <mxPoint as="offset" />
          </mxGeometry>
        </mxCell>
        <mxCell id="Ai1VuBXjDjTH5sea_Xs4-17" style="edgeStyle=orthogonalEdgeStyle;rounded=0;orthogonalLoop=1;jettySize=auto;html=1;entryX=0.5;entryY=0;entryDx=0;entryDy=0;" edge="1" parent="WIyWlLk6GJQsqaUBKTNV-1" source="Ai1VuBXjDjTH5sea_Xs4-0" target="Ai1VuBXjDjTH5sea_Xs4-5">
          <mxGeometry relative="1" as="geometry">
            <Array as="points">
              <mxPoint x="85" y="20" />
              <mxPoint x="705" y="20" />
            </Array>
          </mxGeometry>
        </mxCell>
        <mxCell id="Ai1VuBXjDjTH5sea_Xs4-18" value="向仓库下达发货请求" style="edgeLabel;html=1;align=center;verticalAlign=middle;resizable=0;points=[];" vertex="1" connectable="0" parent="Ai1VuBXjDjTH5sea_Xs4-17">
          <mxGeometry x="-0.2088" y="1" relative="1" as="geometry">
            <mxPoint as="offset" />
          </mxGeometry>
        </mxCell>
        <mxCell id="Ai1VuBXjDjTH5sea_Xs4-0" value="Customer(Seller)" style="shape=umlActor;verticalLabelPosition=bottom;verticalAlign=top;html=1;outlineConnect=0;fillColor=#f5f5f5;fontColor=#333333;strokeColor=#666666;" vertex="1" parent="WIyWlLk6GJQsqaUBKTNV-1">
          <mxGeometry x="70" y="280" width="30" height="60" as="geometry" />
        </mxCell>
        <mxCell id="Ai1VuBXjDjTH5sea_Xs4-12" style="edgeStyle=orthogonalEdgeStyle;rounded=0;orthogonalLoop=1;jettySize=auto;html=1;exitX=1;exitY=0.5;exitDx=0;exitDy=0;entryX=0;entryY=0.5;entryDx=0;entryDy=0;" edge="1" parent="WIyWlLk6GJQsqaUBKTNV-1" source="Ai1VuBXjDjTH5sea_Xs4-3" target="Ai1VuBXjDjTH5sea_Xs4-5">
          <mxGeometry relative="1" as="geometry" />
        </mxCell>
        <mxCell id="Ai1VuBXjDjTH5sea_Xs4-20" value="海外仓收到货放入仓库" style="edgeLabel;html=1;align=center;verticalAlign=middle;resizable=0;points=[];" vertex="1" connectable="0" parent="Ai1VuBXjDjTH5sea_Xs4-12">
          <mxGeometry x="-0.1636" y="1" relative="1" as="geometry">
            <mxPoint as="offset" />
          </mxGeometry>
        </mxCell>
        <mxCell id="Ai1VuBXjDjTH5sea_Xs4-3" value="出口" style="swimlane;whiteSpace=wrap;html=1;fillColor=#fff2cc;strokeColor=#d6b656;" vertex="1" parent="WIyWlLk6GJQsqaUBKTNV-1">
          <mxGeometry x="250" y="50" width="160" height="160" as="geometry" />
        </mxCell>
        <mxCell id="Ai1VuBXjDjTH5sea_Xs4-4" value="海运&lt;br&gt;空运&lt;br&gt;陆运&lt;br&gt;" style="text;html=1;strokeColor=none;fillColor=none;align=center;verticalAlign=middle;whiteSpace=wrap;rounded=0;" vertex="1" parent="Ai1VuBXjDjTH5sea_Xs4-3">
          <mxGeometry x="50" y="60" width="60" height="30" as="geometry" />
        </mxCell>
        <mxCell id="Ai1VuBXjDjTH5sea_Xs4-13" style="edgeStyle=orthogonalEdgeStyle;rounded=0;orthogonalLoop=1;jettySize=auto;html=1;exitX=0.5;exitY=1;exitDx=0;exitDy=0;entryX=0.5;entryY=0;entryDx=0;entryDy=0;entryPerimeter=0;" edge="1" parent="WIyWlLk6GJQsqaUBKTNV-1" source="Ai1VuBXjDjTH5sea_Xs4-5" target="Ai1VuBXjDjTH5sea_Xs4-7">
          <mxGeometry relative="1" as="geometry" />
        </mxCell>
        <mxCell id="Ai1VuBXjDjTH5sea_Xs4-21" value="仓库按订单配送发货" style="edgeLabel;html=1;align=center;verticalAlign=middle;resizable=0;points=[];" vertex="1" connectable="0" parent="Ai1VuBXjDjTH5sea_Xs4-13">
          <mxGeometry x="-0.2222" relative="1" as="geometry">
            <mxPoint as="offset" />
          </mxGeometry>
        </mxCell>
        <mxCell id="Ai1VuBXjDjTH5sea_Xs4-5" value="Warehouse" style="swimlane;whiteSpace=wrap;html=1;fillColor=#d5e8d4;strokeColor=#82b366;" vertex="1" parent="WIyWlLk6GJQsqaUBKTNV-1">
          <mxGeometry x="630" y="50" width="150" height="160" as="geometry" />
        </mxCell>
        <mxCell id="Ai1VuBXjDjTH5sea_Xs4-6" value="海外仓" style="text;html=1;strokeColor=none;fillColor=none;align=center;verticalAlign=middle;whiteSpace=wrap;rounded=0;" vertex="1" parent="Ai1VuBXjDjTH5sea_Xs4-5">
          <mxGeometry x="45" y="70" width="60" height="30" as="geometry" />
        </mxCell>
        <mxCell id="Ai1VuBXjDjTH5sea_Xs4-15" style="edgeStyle=orthogonalEdgeStyle;rounded=0;orthogonalLoop=1;jettySize=auto;html=1;exitX=0;exitY=0.3333333333333333;exitDx=0;exitDy=0;exitPerimeter=0;entryX=1;entryY=0.5;entryDx=0;entryDy=0;" edge="1" parent="WIyWlLk6GJQsqaUBKTNV-1" source="Ai1VuBXjDjTH5sea_Xs4-7" target="Ai1VuBXjDjTH5sea_Xs4-8">
          <mxGeometry relative="1" as="geometry">
            <mxPoint x="440" y="510" as="targetPoint" />
          </mxGeometry>
        </mxCell>
        <mxCell id="Ai1VuBXjDjTH5sea_Xs4-22" value="购买" style="edgeLabel;html=1;align=center;verticalAlign=middle;resizable=0;points=[];" vertex="1" connectable="0" parent="Ai1VuBXjDjTH5sea_Xs4-15">
          <mxGeometry x="-0.0889" y="3" relative="1" as="geometry">
            <mxPoint as="offset" />
          </mxGeometry>
        </mxCell>
        <mxCell id="Ai1VuBXjDjTH5sea_Xs4-7" value="Buyer" style="shape=umlActor;verticalLabelPosition=bottom;verticalAlign=top;html=1;outlineConnect=0;fillColor=#e1d5e7;strokeColor=#9673a6;" vertex="1" parent="WIyWlLk6GJQsqaUBKTNV-1">
          <mxGeometry x="690" y="480" width="30" height="60" as="geometry" />
        </mxCell>
        <mxCell id="Ai1VuBXjDjTH5sea_Xs4-16" style="edgeStyle=orthogonalEdgeStyle;rounded=0;orthogonalLoop=1;jettySize=auto;html=1;exitX=0;exitY=0.5;exitDx=0;exitDy=0;" edge="1" parent="WIyWlLk6GJQsqaUBKTNV-1" source="Ai1VuBXjDjTH5sea_Xs4-8" target="Ai1VuBXjDjTH5sea_Xs4-0">
          <mxGeometry relative="1" as="geometry" />
        </mxCell>
        <mxCell id="Ai1VuBXjDjTH5sea_Xs4-23" value="获取各订单状态" style="edgeLabel;html=1;align=center;verticalAlign=middle;resizable=0;points=[];" vertex="1" connectable="0" parent="Ai1VuBXjDjTH5sea_Xs4-16">
          <mxGeometry x="-0.0377" y="2" relative="1" as="geometry">
            <mxPoint as="offset" />
          </mxGeometry>
        </mxCell>
        <mxCell id="Ai1VuBXjDjTH5sea_Xs4-8" value="Sell Channels" style="swimlane;whiteSpace=wrap;html=1;fillColor=#f8cecc;strokeColor=#b85450;" vertex="1" parent="WIyWlLk6GJQsqaUBKTNV-1">
          <mxGeometry x="270" y="410" width="150" height="180" as="geometry" />
        </mxCell>
        <mxCell id="Ai1VuBXjDjTH5sea_Xs4-9" value="Amazon&lt;br&gt;Ebay&lt;br&gt;Shopify..." style="text;html=1;strokeColor=none;fillColor=none;align=center;verticalAlign=middle;whiteSpace=wrap;rounded=0;" vertex="1" parent="Ai1VuBXjDjTH5sea_Xs4-8">
          <mxGeometry x="50" y="95" width="60" height="30" as="geometry" />
        </mxCell>
        <mxCell id="Ai1VuBXjDjTH5sea_Xs4-33" style="edgeStyle=orthogonalEdgeStyle;rounded=0;orthogonalLoop=1;jettySize=auto;html=1;" edge="1" parent="WIyWlLk6GJQsqaUBKTNV-1" source="Ai1VuBXjDjTH5sea_Xs4-24" target="Ai1VuBXjDjTH5sea_Xs4-26">
          <mxGeometry relative="1" as="geometry" />
        </mxCell>
        <mxCell id="Ai1VuBXjDjTH5sea_Xs4-24" value="Customer/OMS" style="shape=umlActor;verticalLabelPosition=bottom;verticalAlign=top;html=1;outlineConnect=0;" vertex="1" parent="WIyWlLk6GJQsqaUBKTNV-1">
          <mxGeometry x="101" y="770" width="30" height="60" as="geometry" />
        </mxCell>
        <mxCell id="Ai1VuBXjDjTH5sea_Xs4-34" style="edgeStyle=orthogonalEdgeStyle;rounded=0;orthogonalLoop=1;jettySize=auto;html=1;" edge="1" parent="WIyWlLk6GJQsqaUBKTNV-1" source="Ai1VuBXjDjTH5sea_Xs4-26" target="Ai1VuBXjDjTH5sea_Xs4-27">
          <mxGeometry relative="1" as="geometry" />
        </mxCell>
        <mxCell id="Ai1VuBXjDjTH5sea_Xs4-26" value="Create Inbound" style="rounded=1;whiteSpace=wrap;html=1;" vertex="1" parent="WIyWlLk6GJQsqaUBKTNV-1">
          <mxGeometry x="220" y="770" width="100" height="60" as="geometry" />
        </mxCell>
        <mxCell id="Ai1VuBXjDjTH5sea_Xs4-35" style="edgeStyle=orthogonalEdgeStyle;rounded=0;orthogonalLoop=1;jettySize=auto;html=1;entryX=0;entryY=0.5;entryDx=0;entryDy=0;" edge="1" parent="WIyWlLk6GJQsqaUBKTNV-1" source="Ai1VuBXjDjTH5sea_Xs4-27" target="Ai1VuBXjDjTH5sea_Xs4-28">
          <mxGeometry relative="1" as="geometry" />
        </mxCell>
        <mxCell id="Ai1VuBXjDjTH5sea_Xs4-27" value="Manage Inbound" style="rounded=1;whiteSpace=wrap;html=1;" vertex="1" parent="WIyWlLk6GJQsqaUBKTNV-1">
          <mxGeometry x="393" y="770" width="120" height="60" as="geometry" />
        </mxCell>
        <mxCell id="Ai1VuBXjDjTH5sea_Xs4-40" style="edgeStyle=orthogonalEdgeStyle;rounded=0;orthogonalLoop=1;jettySize=auto;html=1;" edge="1" parent="WIyWlLk6GJQsqaUBKTNV-1" source="Ai1VuBXjDjTH5sea_Xs4-28" target="Ai1VuBXjDjTH5sea_Xs4-29">
          <mxGeometry relative="1" as="geometry" />
        </mxCell>
        <mxCell id="Ai1VuBXjDjTH5sea_Xs4-28" value="Create Receiving" style="rounded=1;whiteSpace=wrap;html=1;" vertex="1" parent="WIyWlLk6GJQsqaUBKTNV-1">
          <mxGeometry x="590" y="770" width="120" height="60" as="geometry" />
        </mxCell>
        <mxCell id="Ai1VuBXjDjTH5sea_Xs4-37" style="edgeStyle=orthogonalEdgeStyle;rounded=0;orthogonalLoop=1;jettySize=auto;html=1;entryX=0.5;entryY=0;entryDx=0;entryDy=0;" edge="1" parent="WIyWlLk6GJQsqaUBKTNV-1" source="Ai1VuBXjDjTH5sea_Xs4-29" target="Ai1VuBXjDjTH5sea_Xs4-30">
          <mxGeometry relative="1" as="geometry" />
        </mxCell>
        <mxCell id="Ai1VuBXjDjTH5sea_Xs4-29" value="Received" style="rounded=1;whiteSpace=wrap;html=1;" vertex="1" parent="WIyWlLk6GJQsqaUBKTNV-1">
          <mxGeometry x="590" y="870" width="120" height="60" as="geometry" />
        </mxCell>
        <mxCell id="Ai1VuBXjDjTH5sea_Xs4-38" style="edgeStyle=orthogonalEdgeStyle;rounded=0;orthogonalLoop=1;jettySize=auto;html=1;" edge="1" parent="WIyWlLk6GJQsqaUBKTNV-1" source="Ai1VuBXjDjTH5sea_Xs4-30" target="Ai1VuBXjDjTH5sea_Xs4-31">
          <mxGeometry relative="1" as="geometry" />
        </mxCell>
        <mxCell id="Ai1VuBXjDjTH5sea_Xs4-30" value="Create CheckIn" style="rounded=1;whiteSpace=wrap;html=1;" vertex="1" parent="WIyWlLk6GJQsqaUBKTNV-1">
          <mxGeometry x="590" y="980" width="120" height="60" as="geometry" />
        </mxCell>
        <mxCell id="Ai1VuBXjDjTH5sea_Xs4-39" style="edgeStyle=orthogonalEdgeStyle;rounded=0;orthogonalLoop=1;jettySize=auto;html=1;entryX=0.5;entryY=0;entryDx=0;entryDy=0;" edge="1" parent="WIyWlLk6GJQsqaUBKTNV-1" source="Ai1VuBXjDjTH5sea_Xs4-31" target="Ai1VuBXjDjTH5sea_Xs4-32">
          <mxGeometry relative="1" as="geometry" />
        </mxCell>
        <mxCell id="Ai1VuBXjDjTH5sea_Xs4-31" value="CheckIn" style="rounded=1;whiteSpace=wrap;html=1;" vertex="1" parent="WIyWlLk6GJQsqaUBKTNV-1">
          <mxGeometry x="590" y="1084" width="120" height="50" as="geometry" />
        </mxCell>
        <mxCell id="Ai1VuBXjDjTH5sea_Xs4-32" value="End" style="rounded=1;whiteSpace=wrap;html=1;" vertex="1" parent="WIyWlLk6GJQsqaUBKTNV-1">
          <mxGeometry x="590" y="1181" width="120" height="60" as="geometry" />
        </mxCell>
        <mxCell id="Ai1VuBXjDjTH5sea_Xs4-45" style="edgeStyle=orthogonalEdgeStyle;rounded=0;orthogonalLoop=1;jettySize=auto;html=1;entryX=1;entryY=0.5;entryDx=0;entryDy=0;" edge="1" parent="WIyWlLk6GJQsqaUBKTNV-1" source="Ai1VuBXjDjTH5sea_Xs4-41" target="Ai1VuBXjDjTH5sea_Xs4-28">
          <mxGeometry relative="1" as="geometry" />
        </mxCell>
        <mxCell id="Ai1VuBXjDjTH5sea_Xs4-46" style="edgeStyle=orthogonalEdgeStyle;rounded=0;orthogonalLoop=1;jettySize=auto;html=1;entryX=1;entryY=0.5;entryDx=0;entryDy=0;" edge="1" parent="WIyWlLk6GJQsqaUBKTNV-1" source="Ai1VuBXjDjTH5sea_Xs4-41" target="Ai1VuBXjDjTH5sea_Xs4-30">
          <mxGeometry relative="1" as="geometry" />
        </mxCell>
        <mxCell id="Ai1VuBXjDjTH5sea_Xs4-41" value="Manager" style="shape=umlActor;verticalLabelPosition=bottom;verticalAlign=top;html=1;outlineConnect=0;" vertex="1" parent="WIyWlLk6GJQsqaUBKTNV-1">
          <mxGeometry x="860" y="870" width="30" height="60" as="geometry" />
        </mxCell>
        <mxCell id="Ai1VuBXjDjTH5sea_Xs4-43" style="edgeStyle=orthogonalEdgeStyle;rounded=0;orthogonalLoop=1;jettySize=auto;html=1;entryX=0;entryY=0.5;entryDx=0;entryDy=0;" edge="1" parent="WIyWlLk6GJQsqaUBKTNV-1" source="Ai1VuBXjDjTH5sea_Xs4-42" target="Ai1VuBXjDjTH5sea_Xs4-29">
          <mxGeometry relative="1" as="geometry" />
        </mxCell>
        <mxCell id="Ai1VuBXjDjTH5sea_Xs4-44" style="edgeStyle=orthogonalEdgeStyle;rounded=0;orthogonalLoop=1;jettySize=auto;html=1;entryX=0;entryY=0.5;entryDx=0;entryDy=0;" edge="1" parent="WIyWlLk6GJQsqaUBKTNV-1" source="Ai1VuBXjDjTH5sea_Xs4-42" target="Ai1VuBXjDjTH5sea_Xs4-31">
          <mxGeometry relative="1" as="geometry" />
        </mxCell>
        <mxCell id="Ai1VuBXjDjTH5sea_Xs4-42" value="App User" style="shape=umlActor;verticalLabelPosition=bottom;verticalAlign=top;html=1;outlineConnect=0;" vertex="1" parent="WIyWlLk6GJQsqaUBKTNV-1">
          <mxGeometry x="438" y="970" width="30" height="60" as="geometry" />
        </mxCell>
      </root>
    </mxGraphModel>
  </diagram>
</mxfile>
